<svg width="55" height="55" viewBox="0 0 55 55" fill="none" xmlns="http://www.w3.org/2000/svg">
<g filter="url(#filter0_d_10_452)">
<circle cx="27.5" cy="24.5" r="22.5" fill="#C13584"/>
</g>
<g clip-path="url(#clip0_10_452)">
<path d="M28 15.163C31.204 15.163 31.584 15.175 32.85 15.233C36.102 15.381 37.621 16.924 37.769 20.152C37.827 21.417 37.838 21.797 37.838 25.001C37.838 28.206 37.826 28.585 37.769 29.85C37.62 33.075 36.105 34.621 32.85 34.769C31.584 34.827 31.206 34.839 28 34.839C24.796 34.839 24.416 34.827 23.151 34.769C19.891 34.62 18.38 33.07 18.232 29.849C18.174 28.584 18.162 28.205 18.162 25C18.162 21.796 18.175 21.417 18.232 20.151C18.381 16.924 19.896 15.38 23.151 15.232C24.417 15.175 24.796 15.163 28 15.163ZM28 13C24.741 13 24.333 13.014 23.053 13.072C18.695 13.272 16.273 15.69 16.073 20.052C16.014 21.333 16 21.741 16 25C16 28.259 16.014 28.668 16.072 29.948C16.272 34.306 18.69 36.728 23.052 36.928C24.333 36.986 24.741 37 28 37C31.259 37 31.668 36.986 32.948 36.928C37.302 36.728 39.73 34.31 39.927 29.948C39.986 28.668 40 28.259 40 25C40 21.741 39.986 21.333 39.928 20.053C39.732 15.699 37.311 13.273 32.949 13.073C31.668 13.014 31.259 13 28 13V13ZM28 18.838C24.597 18.838 21.838 21.597 21.838 25C21.838 28.403 24.597 31.163 28 31.163C31.403 31.163 34.162 28.404 34.162 25C34.162 21.597 31.403 18.838 28 18.838ZM28 29C25.791 29 24 27.21 24 25C24 22.791 25.791 21 28 21C30.209 21 32 22.791 32 25C32 27.21 30.209 29 28 29ZM34.406 17.155C33.61 17.155 32.965 17.8 32.965 18.595C32.965 19.39 33.61 20.035 34.406 20.035C35.201 20.035 35.845 19.39 35.845 18.595C35.845 17.8 35.201 17.155 34.406 17.155Z" fill="white"/>
</g>
<defs>
<filter id="filter0_d_10_452" x="0" y="0" width="55" height="55" filterUnits="userSpaceOnUse" color-interpolation-filters="sRGB">
<feFlood flood-opacity="0" result="BackgroundImageFix"/>
<feColorMatrix in="SourceAlpha" type="matrix" values="0 0 0 0 0 0 0 0 0 0 0 0 0 0 0 0 0 0 127 0" result="hardAlpha"/>
<feOffset dy="3"/>
<feGaussianBlur stdDeviation="2.5"/>
<feComposite in2="hardAlpha" operator="out"/>
<feColorMatrix type="matrix" values="0 0 0 0 0 0 0 0 0 0 0 0 0 0 0 0 0 0 0.25 0"/>
<feBlend mode="normal" in2="BackgroundImageFix" result="effect1_dropShadow_10_452"/>
<feBlend mode="normal" in="SourceGraphic" in2="effect1_dropShadow_10_452" result="shape"/>
</filter>
<clipPath id="clip0_10_452">
<rect width="24" height="24" fill="white" transform="translate(16 13)"/>
</clipPath>
</defs>
</svg>
