<svg width="167" height="36" viewBox="0 0 167 36" fill="none" xmlns="http://www.w3.org/2000/svg">
<path d="M15.5641 4.68757L17.7385 2.34692L19.9717 4.68757L20.6769 4.04389L17.6798 0.942535L14.8589 4.04389L15.5641 4.68757Z" fill="#5ECCF5"/>
<path d="M16.1518 6.91118L17.6798 8.95925L19.384 6.91118L18.6788 6.32602L17.7385 7.43783L16.9158 6.32602L16.1518 6.91118Z" fill="#FDBE16"/>
<path d="M14.8001 31.9561L17.621 35.0575L20.6182 32.0146L19.9129 31.3124L17.6798 33.6531L15.5053 31.3124L14.8001 31.9561Z" fill="#5ECCF5"/>
<path d="M16.857 29.674L17.6798 28.5622L18.6201 29.7325L19.3253 29.0888L17.621 27.0993L16.093 29.1473L16.857 29.674Z" fill="#FDBE16"/>
<path d="M6.69013 10.1296L6.5726 6.91119L9.86361 7.02822V6.09196L5.63231 5.97493L5.74984 10.1296H6.69013Z" fill="#5ECCF5"/>
<path d="M8.68825 11.2999L11.274 11.651L11.039 9.01778L10.0987 9.07629L10.2162 10.5392L8.86455 10.3636L8.68825 11.2999Z" fill="#FDBE16"/>
<path d="M25.5547 29.9666L29.786 30.1421L29.6684 25.8704H28.7282L28.7869 29.1473L25.6135 29.0303L25.5547 29.9666Z" fill="#5ECCF5"/>
<path d="M25.3784 26.8652L25.2021 25.5193L26.6713 25.6364L26.73 24.7001L24.0855 24.5246L24.4381 27.0408L25.3784 26.8652Z" fill="#FDBE16"/>
<path d="M4.33941 20.1944L1.98869 18.0293L4.33941 15.8056L3.69296 15.1035L0.637024 18.0293L3.69296 20.8966L4.33941 20.1944Z" fill="#5ECCF5"/>
<path d="M6.5726 19.6092L8.62949 18.0878L6.5726 16.3323L5.98492 17.0345L7.10152 18.0293L5.98492 18.8485L6.5726 19.6092Z" fill="#FDBE16"/>
<path d="M31.7841 20.9551L34.84 18.0878L31.7841 15.162L31.1376 15.8056L33.4884 18.0878L31.1376 20.2529L31.7841 20.9551Z" fill="#5ECCF5"/>
<path d="M29.4334 18.907L28.3756 18.0878L29.4921 17.093L28.8457 16.3908L26.8476 18.0878L28.9045 19.6677L29.4334 18.907Z" fill="#FDBE16"/>
<path d="M9.80484 28.9718L6.63137 29.0888L6.69013 25.8704L5.74984 25.8119L5.63231 30.0836L9.86361 29.908L9.80484 28.9718Z" fill="#5ECCF5"/>
<path d="M10.9802 26.9822L11.3328 24.466L8.68825 24.7001L8.74702 25.6364L10.2162 25.5193L10.0399 26.8652L10.9802 26.9822Z" fill="#FDBE16"/>
<path d="M29.7272 10.1881L29.9035 6.03345L25.6134 6.09196V7.02822L28.9045 6.96971L28.7869 10.1296L29.7272 10.1881Z" fill="#5ECCF5"/>
<path d="M26.6713 10.3636L25.2608 10.5392L25.3784 9.07629L24.4381 9.01778L24.2618 11.651L26.7888 11.2999L26.6713 10.3636Z" fill="#FDBE16"/>
<path d="M17.7385 22.4765C20.2052 22.4765 22.2049 20.4854 22.2049 18.0293C22.2049 15.5731 20.2052 13.582 17.7385 13.582C15.2718 13.582 13.2722 15.5731 13.2722 18.0293C13.2722 20.4854 15.2718 22.4765 17.7385 22.4765Z" fill="#FDBE16"/>
<path d="M17.7385 24.8757C13.9186 24.8757 10.8039 21.7743 10.8039 17.9708C10.8039 14.1672 13.9186 11.0658 17.7385 11.0658C21.5584 11.0658 24.6732 14.1672 24.6732 17.9708C24.6144 21.7743 21.5584 24.8757 17.7385 24.8757ZM17.7385 12.1776C14.5063 12.1776 11.8617 14.8109 11.8617 18.0293C11.8617 21.2477 14.5063 23.8809 17.7385 23.8809C20.9708 23.8809 23.6153 21.2477 23.6153 18.0293C23.5566 14.8109 20.9708 12.1776 17.7385 12.1776Z" fill="#FDBE16"/>
<path d="M59.6989 28.094V19.8433C59.6989 17.3856 58.3473 17.0345 57.5245 17.0345C56.5255 17.0345 54.88 17.4441 54.88 20.3699V28.094H50.825V19.8433C50.825 17.3271 49.297 17.0345 48.6505 17.0345C46.9463 17.0345 46.006 18.2633 46.006 20.3699V28.094H41.8334V14.1672H45.1832V16.6249L46.0647 15.5716C47.0638 14.4013 48.533 13.6991 50.061 13.6991C51.7065 13.6991 53.1169 14.4013 53.9397 15.6886L54.351 16.2738L54.7624 15.7471C55.7615 14.4598 57.3482 13.7576 58.9937 13.7576C61.8734 13.7576 63.8715 15.9812 63.8715 19.2581V28.1526H59.6989V28.094Z" fill="white"/>
<path d="M74.2147 28.5622C69.6307 28.5622 66.281 25.4023 66.281 21.0721C66.281 16.7419 69.6307 13.582 74.2147 13.582C78.7986 13.582 82.1483 16.7419 82.1483 21.0721C82.1483 25.4608 78.7986 28.5622 74.2147 28.5622ZM74.2147 17.2686C72.0402 17.2686 70.4535 18.8485 70.4535 21.1306C70.4535 23.4128 71.9815 24.9927 74.2147 24.9927C75.2725 24.9927 76.2128 24.5831 76.918 23.9394C77.6232 23.2957 77.9758 22.2424 77.9758 21.1891C77.9758 18.907 76.3891 17.2686 74.2147 17.2686Z" fill="white"/>
<path d="M90.6697 28.0941C87.6138 28.0941 85.8507 26.2801 85.8507 23.2372V17.093H83.0886V14.0502H85.8507V9.71997H89.8469V14.1087H93.6081V17.093H89.9645V22.3595C89.9645 23.7053 90.846 24.5831 92.1977 24.5831H93.6669V28.0941H90.6697Z" fill="white"/>
<path d="M100.543 14.1672H96.3702V28.0941H100.543V14.1672Z" fill="white"/>
<path d="M108.183 8.72519H104.01V28.094H108.183V8.72519Z" fill="white"/>
<path d="M118.526 28.5622C113.942 28.5622 110.592 25.4023 110.592 21.0721C110.592 16.7419 113.942 13.582 118.526 13.582C123.11 13.582 126.459 16.7419 126.459 21.0721C126.401 25.4608 123.11 28.5622 118.526 28.5622ZM118.526 17.2686C116.351 17.2686 114.765 18.8485 114.765 21.1306C114.765 23.4128 116.293 24.9927 118.526 24.9927C119.584 24.9927 120.524 24.5831 121.229 23.9394C121.934 23.2957 122.287 22.2424 122.287 21.1891C122.228 18.907 120.7 17.2686 118.526 17.2686Z" fill="white"/>
<path d="M137.743 28.094L133.453 20.8966L137.567 14.1672H142.151L137.802 20.7795L142.621 28.094H137.743ZM129.045 28.094V8.72519H133.218V28.094H129.045Z" fill="white"/>
<path d="M150.496 28.5622C146.206 28.5622 143.15 25.4023 143.15 21.0721C143.15 16.6834 146.206 13.6406 150.496 13.6406C152.082 13.6406 153.552 14.1672 154.786 15.162L155.608 15.8642V14.1672H159.017V28.0941H155.608V26.4556L154.786 27.0993C153.552 28.0355 152.024 28.5622 150.496 28.5622ZM151.201 17.2101C149.026 17.2101 147.322 18.907 147.322 21.1306C147.322 23.3543 148.968 25.0512 151.201 25.0512C153.434 25.0512 155.08 23.3543 155.08 21.1306C155.021 18.907 153.375 17.2101 151.201 17.2101Z" fill="white"/>
<path d="M166.363 8.72519H162.19V28.094H166.363V8.72519Z" fill="white"/>
<path d="M98.4271 11.768C97.193 11.768 96.2527 10.7733 96.2527 9.60294C96.2527 8.43261 97.2517 7.43784 98.4271 7.43784C99.6612 7.43784 100.602 8.43261 100.602 9.60294C100.602 10.7733 99.6612 11.768 98.4271 11.768Z" fill="white"/>
</svg>
