<svg width="167" height="36" viewBox="0 0 167 36" fill="none" xmlns="http://www.w3.org/2000/svg">
<path d="M15.5641 4.68766L17.7385 2.34701L19.9717 4.68766L20.6769 4.04398L17.6798 0.942627L14.8589 4.04398L15.5641 4.68766Z" fill="#5ECCF5"/>
<path d="M16.1519 6.91109L17.6799 8.95916L19.3841 6.91109L18.6789 6.32593L17.7386 7.43774L16.9159 6.32593L16.1519 6.91109Z" fill="#FDBE16"/>
<path d="M14.8 31.9562L17.6209 35.0576L20.6181 32.0147L19.9128 31.3125L17.6797 33.6532L15.5052 31.3125L14.8 31.9562Z" fill="#5ECCF5"/>
<path d="M16.857 29.6741L17.6798 28.5623L18.6201 29.7326L19.3253 29.0889L17.621 27.0994L16.093 29.1474L16.857 29.6741Z" fill="#FDBE16"/>
<path d="M6.69014 10.1295L6.57261 6.91111L9.86362 7.02814V6.09188L5.63232 5.97485L5.74985 10.1295H6.69014Z" fill="#5ECCF5"/>
<path d="M8.68823 11.2999L11.274 11.651L11.039 9.01782L10.0987 9.07633L10.2162 10.5392L8.86453 10.3636L8.68823 11.2999Z" fill="#FDBE16"/>
<path d="M25.5547 29.9666L29.786 30.1421L29.6684 25.8704H28.7282L28.7869 29.1473L25.6135 29.0303L25.5547 29.9666Z" fill="#5ECCF5"/>
<path d="M25.3783 26.8653L25.202 25.5194L26.6712 25.6365L26.7299 24.7002L24.0854 24.5247L24.438 27.0409L25.3783 26.8653Z" fill="#FDBE16"/>
<path d="M4.33935 20.1944L1.98863 18.0293L4.33935 15.8056L3.6929 15.1035L0.636963 18.0293L3.6929 20.8966L4.33935 20.1944Z" fill="#5ECCF5"/>
<path d="M6.57254 19.6092L8.62943 18.0878L6.57254 16.3323L5.98486 17.0345L7.10146 18.0293L5.98486 18.8485L6.57254 19.6092Z" fill="#FDBE16"/>
<path d="M31.7842 20.9552L34.8401 18.0879L31.7842 15.1621L31.1377 15.8057L33.4885 18.0879L31.1377 20.253L31.7842 20.9552Z" fill="#5ECCF5"/>
<path d="M29.4335 18.9071L28.3757 18.0879L29.4922 17.0931L28.8458 16.3909L26.8477 18.0879L28.9046 19.6678L29.4335 18.9071Z" fill="#FDBE16"/>
<path d="M9.80485 28.9719L6.63138 29.0889L6.69014 25.8705L5.74985 25.812L5.63232 30.0837L9.86362 29.9081L9.80485 28.9719Z" fill="#5ECCF5"/>
<path d="M10.9802 26.9823L11.3328 24.4661L8.68823 24.7002L8.747 25.6365L10.2162 25.5194L10.0399 26.8653L10.9802 26.9823Z" fill="#FDBE16"/>
<path d="M29.7271 10.1881L29.9034 6.03345L25.6133 6.09196V7.02822L28.9044 6.96971L28.7868 10.1296L29.7271 10.1881Z" fill="#5ECCF5"/>
<path d="M26.6712 10.3636L25.2607 10.5392L25.3783 9.07633L24.438 9.01782L24.2617 11.651L26.7887 11.2999L26.6712 10.3636Z" fill="#FDBE16"/>
<path d="M17.7385 22.4765C20.2052 22.4765 22.2049 20.4854 22.2049 18.0293C22.2049 15.5731 20.2052 13.582 17.7385 13.582C15.2718 13.582 13.2722 15.5731 13.2722 18.0293C13.2722 20.4854 15.2718 22.4765 17.7385 22.4765Z" fill="#FDBE16"/>
<path d="M17.7386 24.8758C13.9187 24.8758 10.804 21.7744 10.804 17.9709C10.804 14.1673 13.9187 11.0659 17.7386 11.0659C21.5585 11.0659 24.6733 14.1673 24.6733 17.9709C24.6145 21.7744 21.5585 24.8758 17.7386 24.8758ZM17.7386 12.1777C14.5064 12.1777 11.8618 14.811 11.8618 18.0294C11.8618 21.2478 14.5064 23.881 17.7386 23.881C20.9709 23.881 23.6154 21.2478 23.6154 18.0294C23.5567 14.811 20.9709 12.1777 17.7386 12.1777Z" fill="#FDBE16"/>
<path d="M59.699 28.0941V19.8434C59.699 17.3857 58.3474 17.0346 57.5246 17.0346C56.5256 17.0346 54.8801 17.4442 54.8801 20.37V28.0941H50.8251V19.8434C50.8251 17.3272 49.2971 17.0346 48.6506 17.0346C46.9464 17.0346 46.0061 18.2634 46.0061 20.37V28.0941H41.8335V14.1673H45.1833V16.625L46.0648 15.5717C47.0639 14.4014 48.5331 13.6992 50.0611 13.6992C51.7066 13.6992 53.117 14.4014 53.9398 15.6887L54.3511 16.2739L54.7625 15.7472C55.7616 14.4599 57.3483 13.7577 58.9938 13.7577C61.8735 13.7577 63.8716 15.9813 63.8716 19.2582V28.1527H59.699V28.0941Z" fill="#1D2D60"/>
<path d="M74.2147 28.5622C69.6307 28.5622 66.281 25.4023 66.281 21.0721C66.281 16.7419 69.6307 13.582 74.2147 13.582C78.7986 13.582 82.1483 16.7419 82.1483 21.0721C82.1483 25.4608 78.7986 28.5622 74.2147 28.5622ZM74.2147 17.2686C72.0402 17.2686 70.4535 18.8485 70.4535 21.1306C70.4535 23.4128 71.9815 24.9927 74.2147 24.9927C75.2725 24.9927 76.2128 24.5831 76.918 23.9394C77.6232 23.2957 77.9758 22.2424 77.9758 21.1891C77.9758 18.907 76.3891 17.2686 74.2147 17.2686Z" fill="#1D2D60"/>
<path d="M90.6697 28.0941C87.6138 28.0941 85.8507 26.2801 85.8507 23.2372V17.093H83.0886V14.0502H85.8507V9.71997H89.8469V14.1087H93.6081V17.093H89.9645V22.3595C89.9645 23.7053 90.846 24.5831 92.1977 24.5831H93.6669V28.0941H90.6697Z" fill="#1D2D60"/>
<path d="M100.543 14.1672H96.3701V28.0941H100.543V14.1672Z" fill="#1D2D60"/>
<path d="M108.183 8.7251H104.01V28.0939H108.183V8.7251Z" fill="#1D2D60"/>
<path d="M118.526 28.5622C113.942 28.5622 110.592 25.4023 110.592 21.0721C110.592 16.7419 113.942 13.582 118.526 13.582C123.11 13.582 126.459 16.7419 126.459 21.0721C126.401 25.4608 123.11 28.5622 118.526 28.5622ZM118.526 17.2686C116.351 17.2686 114.765 18.8485 114.765 21.1306C114.765 23.4128 116.293 24.9927 118.526 24.9927C119.584 24.9927 120.524 24.5831 121.229 23.9394C121.934 23.2957 122.287 22.2424 122.287 21.1891C122.228 18.907 120.7 17.2686 118.526 17.2686Z" fill="#1D2D60"/>
<path d="M137.743 28.0939L133.453 20.8965L137.567 14.1671H142.151L137.802 20.7794L142.621 28.0939H137.743ZM129.045 28.0939V8.7251H133.218V28.0939H129.045Z" fill="#1D2D60"/>
<path d="M150.496 28.5622C146.206 28.5622 143.15 25.4023 143.15 21.0721C143.15 16.6834 146.206 13.6406 150.496 13.6406C152.082 13.6406 153.552 14.1672 154.786 15.162L155.608 15.8642V14.1672H159.017V28.0941H155.608V26.4556L154.786 27.0993C153.552 28.0355 152.024 28.5622 150.496 28.5622ZM151.201 17.2101C149.026 17.2101 147.322 18.907 147.322 21.1306C147.322 23.3543 148.968 25.0512 151.201 25.0512C153.434 25.0512 155.08 23.3543 155.08 21.1306C155.021 18.907 153.375 17.2101 151.201 17.2101Z" fill="#1D2D60"/>
<path d="M166.363 8.7251H162.19V28.0939H166.363V8.7251Z" fill="#1D2D60"/>
<path d="M98.4271 11.7679C97.193 11.7679 96.2527 10.7732 96.2527 9.60284C96.2527 8.43251 97.2517 7.43774 98.4271 7.43774C99.6612 7.43774 100.602 8.43251 100.602 9.60284C100.602 10.7732 99.6612 11.7679 98.4271 11.7679Z" fill="#1D2D60"/>
</svg>
