<svg width="18" height="18" viewBox="0 0 18 18" fill="none" xmlns="http://www.w3.org/2000/svg">
<g clip-path="url(#clip0_227_31)">
<path d="M15.5641 4.68766L17.7385 2.34701L19.9717 4.68766L20.6769 4.04398L17.6798 0.942627L14.8589 4.04398L15.5641 4.68766Z" fill="#5ECCF5"/>
<path d="M16.1519 6.91109L17.6799 8.95916L19.3841 6.91109L18.6789 6.32593L17.7386 7.43774L16.9159 6.32593L16.1519 6.91109Z" fill="#FDBE16"/>
<path d="M6.69014 10.1295L6.57261 6.91111L9.86362 7.02814V6.09188L5.63232 5.97485L5.74985 10.1295H6.69014Z" fill="#5ECCF5"/>
<path d="M8.68823 11.2999L11.274 11.651L11.039 9.01782L10.0987 9.07633L10.2162 10.5392L8.86453 10.3636L8.68823 11.2999Z" fill="#FDBE16"/>
<path d="M4.33935 20.1944L1.98863 18.0293L4.33935 15.8056L3.6929 15.1035L0.636963 18.0293L3.6929 20.8966L4.33935 20.1944Z" fill="#5ECCF5"/>
<path d="M6.57254 19.6092L8.62943 18.0878L6.57254 16.3323L5.98486 17.0345L7.10146 18.0293L5.98486 18.8485L6.57254 19.6092Z" fill="#FDBE16"/>
<path d="M17.7385 22.4765C20.2052 22.4765 22.2049 20.4854 22.2049 18.0293C22.2049 15.5731 20.2052 13.582 17.7385 13.582C15.2718 13.582 13.2722 15.5731 13.2722 18.0293C13.2722 20.4854 15.2718 22.4765 17.7385 22.4765Z" fill="#FDBE16"/>
<path d="M17.7386 24.8758C13.9187 24.8758 10.804 21.7744 10.804 17.9709C10.804 14.1673 13.9187 11.0659 17.7386 11.0659C21.5585 11.0659 24.6733 14.1673 24.6733 17.9709C24.6145 21.7744 21.5585 24.8758 17.7386 24.8758ZM17.7386 12.1777C14.5064 12.1777 11.8618 14.811 11.8618 18.0294C11.8618 21.2478 14.5064 23.881 17.7386 23.881C20.9709 23.881 23.6154 21.2478 23.6154 18.0294C23.5567 14.811 20.9709 12.1777 17.7386 12.1777Z" fill="#FDBE16"/>
</g>
<defs>
<clipPath id="clip0_227_31">
<rect width="18" height="18" fill="white"/>
</clipPath>
</defs>
</svg>
